<svg xmlns="http://www.w3.org/2000/svg" version="1.1" xmlns:xlink="http://www.w3.org/1999/xlink" xmlns:svgjs="http://svgjs.dev/svgjs" width="1000" height="1000" viewBox="0 0 1000 1000"><rect width="1000" height="1000" fill="#ffffff"></rect><g transform="matrix(0.7,0,0,0.7,149.64259206085524,0.9544129554655569)"><svg viewBox="0 0 173 247" data-background-color="#ffffff" preserveAspectRatio="xMidYMid meet" height="1427" width="1000" xmlns="http://www.w3.org/2000/svg" xmlns:xlink="http://www.w3.org/1999/xlink"><g id="tight-bounds" transform="matrix(1,0,0,1,0.08833081924578323,-0.09999999999999432)"><svg viewBox="0 0 172.82333836150843 247.2" height="247.2" width="172.82333836150843"><g><svg viewBox="0 0 172.82333836150843 247.2" height="247.2" width="172.82333836150843"><g><svg viewBox="0 0 172.82333836150843 247.2" height="247.2" width="172.82333836150843"><g><svg viewBox="0 0 172.82333836150843 247.2" height="247.2" width="172.82333836150843"><g id="textblocktransform"><svg viewBox="0 0 172.82333836150843 247.2" height="247.2" width="172.82333836150843" id="textblock"><g><svg viewBox="0 0 172.82333836150843 247.2" height="247.2" width="172.82333836150843"><rect width="172.82333836150843" height="247.2" x="0" y="0" opacity="1" fill="#000000" data-fill-palette-color="tertiary"></rect><g transform="matrix(1,0,0,1,23.607599999999998,23.607599999999998)"><svg width="125.60813836150845" viewBox="2 -38.15 24.15 38.449999999999996" height="199.9848" data-palette-color="#2abaff"><path d="M24.65-25.2L20.9-25.2Q22.4-27.45 22.4-29.4 22.4-31.35 21.3-32.5 20.2-33.65 18.4-33.65 16.6-33.65 15.5-32.77 14.4-31.9 14.4-30.03 14.4-28.15 17-23.3 19.6-18.45 20.3-17.05L20.3-17.05Q22.2-13.25 22.2-9.7L22.2-9.7Q22.2-5.25 18.98-2.48 15.75 0.3 11.38 0.3 7 0.3 4.5-2.43 2-5.15 2-8.8L2-8.8Q2-15.55 10.35-19.95L10.35-19.95Q6.95-26.65 6.95-29.3L6.95-29.3Q6.95-33 9.93-35.58 12.9-38.15 17.23-38.15 21.55-38.15 23.85-35.95 26.15-33.75 26.15-30.35L26.15-30.35Q26.15-28.1 24.65-25.2L24.65-25.2ZM7.8-5.7Q9.15-4.25 11.08-4.25 13-4.25 14.08-5.38 15.15-6.5 15.15-8.7L15.15-8.7Q15.15-10.7 13.6-13.6L13.6-13.6Q13.4-14 12.85-15.08 12.3-16.15 12.05-16.6L12.05-16.6Q6.45-13.7 6.45-9.3L6.45-9.3Q6.45-7.05 7.8-5.7L7.8-5.7Z" opacity="1" transform="matrix(1,0,0,1,0,0)" fill="#ffffff" class="undefined-text-0" data-fill-palette-color="quaternary" id="text-0"></path></svg></g></svg></g></svg></g></svg></g></svg></g></svg></g><defs></defs></svg><rect width="172.82333836150843" height="247.2" fill="none" stroke="none" visibility="hidden"></rect></g></svg></g></svg>